<?xml version="1.0" standalone="no"?><!-- Generator: Gravit.io --><svg xmlns="http://www.w3.org/2000/svg" xmlns:xlink="http://www.w3.org/1999/xlink" style="isolation:isolate" viewBox="0 0 1141.448 197.564" width="1141.448" height="197.564"><defs><clipPath id="_clipPath_sQ2UPKgF3aUkO7RJbJnx1neOp67CVzzv"><rect width="1141.448" height="197.564"/></clipPath></defs><g clip-path="url(#_clipPath_sQ2UPKgF3aUkO7RJbJnx1neOp67CVzzv)"><g id="Group"><path d=" M 576.627 94.469 Q 576.627 136.132 576.627 177.784 C 576.627 181.714 576.743 184.898 571.699 186.474 C 537.391 197.16 502.422 200.575 467.022 194.554 C 432.693 188.722 411.552 164.544 410.207 127.862 C 408.757 88.448 409.66 48.95 409.345 9.483 C 409.345 4.943 411.32 3.178 415.271 2.516 C 431.752 -0.076 448.535 -0.108 465.025 2.422 C 471.004 3.273 471.214 7.024 471.204 11.794 C 471.12 44.536 471.067 77.278 471.309 110.02 C 471.498 135.753 481.144 144.695 506.751 144.223 C 513.245 144.107 515.157 141.974 515.157 135.491 C 514.884 97.779 515.021 60.067 515.021 22.355 C 515.021 2.39 515.021 2.39 534.985 0.835 C 546.407 -0.079 557.745 0.898 569.082 2.201 C 574.683 2.842 576.827 5.143 576.764 11.143 C 576.438 38.925 576.627 66.697 576.627 94.469 Z " fill="rgb(242,242,242)"/><path d=" M 378.02 73.632 C 376.969 92.546 379.848 115.663 376.444 138.685 C 370.927 175.861 345.383 194.123 313.083 196.719 C 298.372 197.896 283.367 198.495 268.709 193.997 C 263.529 192.411 261.658 190.078 261.585 184.919 C 261.399 172.644 262.89 160.401 266.019 148.531 C 267.49 142.93 270.422 141.69 275.476 142.804 C 282.06 144.208 288.806 144.703 295.524 144.275 C 306.295 143.676 313.188 138.223 314.848 127.463 C 318.295 105.113 315.731 82.553 316.34 60.088 C 316.456 55.674 313.114 55.99 310.183 55.979 C 301.997 55.979 293.801 55.717 285.637 56.063 C 280.688 56.273 278.859 53.962 278.218 49.591 C 276.122 36.591 276.098 23.341 278.145 10.334 C 278.975 5.374 281.192 3.777 286.309 3.819 Q 328.834 4.197 371.421 3.819 C 376.906 3.819 378.335 5.437 378.262 10.765 C 377.841 30.362 378.02 49.958 378.02 73.632 Z " fill="rgb(242,242,242)"/><path d=" M 708.487 103.117 C 708.487 75.345 708.603 47.563 708.372 19.791 C 708.372 14.968 709.601 12.541 714.372 10.985 C 748.637 -0.195 783.502 -3.2 818.902 3.63 C 852.274 10.05 873.909 34.27 874.96 68.284 C 876.19 108.013 875.507 147.795 875.853 187.546 C 875.853 192.011 874.267 193.85 870.064 194.386 C 853.247 196.536 836.221 196.487 819.417 194.239 C 813.984 193.503 813.953 190.456 813.963 186.358 Q 814.089 139.872 813.963 93.386 C 813.963 86.693 813.963 80.052 812.156 73.422 C 806.997 54.508 789.817 50.957 773.54 55.139 C 768.644 56.399 770.188 60.729 770.178 63.965 C 770.094 104.02 769.884 144.075 770.335 184.131 C 770.42 191.644 768.234 194.575 761.015 195.101 C 746.156 196.271 731.226 196.201 716.379 194.89 C 710.494 194.344 708.162 192.169 708.277 185.602 C 708.75 158.082 708.487 130.605 708.487 103.117 Z " fill="rgb(242,242,242)"/><path d=" M 672.77 99.607 C 672.77 127.978 672.56 156.348 672.928 184.719 C 673.012 191.223 671.31 194.26 664.669 194.848 C 648.964 196.415 633.138 196.344 617.447 194.638 C 612.13 194.008 610.302 191.801 610.313 186.232 Q 610.628 98.514 610.313 10.754 C 610.313 4.838 612.855 3.073 617.742 2.348 C 633.66 -0.075 649.854 -0.075 665.772 2.348 C 670.816 3.115 673.001 5.311 672.938 10.996 C 672.602 40.501 672.77 70.07 672.77 99.607 Z " fill="rgb(242,242,242)"/><path d=" M 975.653 3.956 C 1001.082 3.956 1026.51 4.229 1051.928 3.767 C 1058.58 3.651 1061.459 5.784 1062.016 12.068 C 1063.058 23.715 1063.058 35.432 1062.016 47.079 C 1061.459 53.205 1058.685 56.158 1052.054 55.979 C 1039.792 55.632 1027.487 56.378 1015.278 55.832 C 1008.08 55.506 1005.894 57.513 1005.957 64.942 C 1006.325 104.976 1005.957 145.021 1006.325 185.055 C 1006.388 191.833 1004.139 194.355 997.919 194.911 C 982.786 196.264 967.564 196.264 952.431 194.911 C 946.484 194.376 944.288 192.032 944.351 185.539 C 944.708 145.504 944.298 105.46 944.729 65.426 C 944.813 57.45 942.375 55.485 934.841 55.843 C 922.306 56.442 909.707 55.664 897.161 56.158 C 891.298 56.389 889.438 53.762 888.755 48.802 C 886.841 36.663 886.71 24.308 888.366 12.131 C 889.228 6.204 891.035 3.725 897.623 3.809 C 923.63 4.197 949.647 3.956 975.653 3.956 Z " fill="rgb(242,242,242)"/><path d=" M 1079.894 98.798 C 1079.894 69.881 1080.157 41.006 1079.705 12.057 C 1079.6 5.07 1082.258 2.926 1088.458 2.138 C 1103.22 0.107 1118.188 0.075 1132.958 2.043 C 1138.832 2.884 1141.48 4.576 1141.448 11.196 Q 1141.07 98.819 1141.448 186.442 C 1141.448 191.318 1140.397 193.987 1135.143 194.617 C 1118.905 196.571 1102.487 196.514 1086.262 194.449 C 1081.082 193.798 1079.779 191.433 1079.821 186.411 C 1079.999 157.21 1079.894 127.999 1079.894 98.798 Z " fill="rgb(242,242,242)"/></g><g id="Group"><path d=" M 146.393 47.766 L 188.089 118.355 L 229.786 188.943 C 232.593 193.695 230.391 197.553 224.872 197.553 L 141.307 197.553 L 57.743 197.553 C 52.224 197.553 50.022 193.695 52.829 188.943 L 94.525 118.355 L 136.221 47.766 C 139.028 43.014 143.586 43.014 146.393 47.766 Z " fill="rgb(242,242,242)"/><path d=" M 121.68 3.896 L 133.161 23.336 C 135.406 27.138 135.403 33.31 133.155 37.11 L 42.304 190.668 C 40.056 194.468 34.646 197.553 30.231 197.553 L 5.689 197.553 C 1.273 197.553 -0.472 194.477 1.794 190.687 L 113.506 3.873 C 115.772 0.084 119.435 0.094 121.68 3.896 Z " fill="rgb(242,154,72)"/></g></g></svg>